<?xml version="1.0" encoding="UTF-8"?>
<svg id="Layer_2" data-name="Layer 2" xmlns="http://www.w3.org/2000/svg" viewBox="0 0 1220.47 132.58">
  <defs>
    <style>
      .cls-1 {
        fill: #f9f9f9;
        stroke-width: 0px;
      }
    </style>
  </defs>
  <g id="Layer_1-2" data-name="Layer 1">
    <g>
      <path class="cls-1" d="m0,130.2V2.37h15.34v112.49h57.25v15.34H0Z"/>
      <path class="cls-1" d="m142.71,132.58c-10.23,0-19.1-2.5-26.62-7.49-7.52-4.99-13.3-11.7-17.35-20.13-4.05-8.43-6.07-17.79-6.07-28.08V2.37h15.34v74.51c0,7.3,1.35,14.03,4.06,20.18,2.71,6.15,6.63,11.05,11.78,14.7,5.14,3.65,11.43,5.48,18.85,5.48s13.88-1.84,18.99-5.52c5.11-3.68,8.99-8.58,11.64-14.7,2.65-6.12,3.97-12.83,3.97-20.13V2.37h15.34v74.51c0,7.73-1.16,14.96-3.47,21.69-2.31,6.73-5.65,12.65-10,17.76-4.35,5.11-9.6,9.1-15.75,11.96-6.15,2.86-13.06,4.29-20.73,4.29Z"/>
      <path class="cls-1" d="m273.73,132.58c-8.64,0-16.77-1.72-24.38-5.16-7.61-3.44-14.29-8.19-20.04-14.24-5.75-6.06-10.26-13.1-13.51-21.14-3.26-8.03-4.88-16.62-4.88-25.75s1.63-17.71,4.88-25.75c3.26-8.03,7.76-15.08,13.51-21.14,5.75-6.06,12.43-10.8,20.04-14.24,7.61-3.44,15.73-5.16,24.38-5.16,10.35,0,19.87,2.41,28.58,7.21,8.7,4.81,15.92,11.2,21.64,19.17l-13.6,7.3c-4.26-5.6-9.63-10.06-16.12-13.38-6.48-3.32-13.32-4.98-20.5-4.98-6.64,0-12.83,1.34-18.58,4.02-5.75,2.68-10.79,6.36-15.11,11.05-4.32,4.69-7.7,10.1-10.14,16.25-2.44,6.15-3.65,12.69-3.65,19.63s1.23,13.57,3.7,19.72c2.47,6.15,5.87,11.57,10.23,16.25,4.35,4.69,9.4,8.35,15.16,11,5.75,2.65,11.88,3.97,18.4,3.97,7.43,0,14.32-1.69,20.68-5.07,6.36-3.38,11.67-7.81,15.93-13.29l13.6,7.4c-5.72,7.98-12.94,14.35-21.64,19.13-8.71,4.78-18.23,7.17-28.58,7.17Z"/>
      <path class="cls-1" d="m429.14,130.2h-19.81l-40.36-55.42-9.59,11.5v43.92h-15.34V2.37h15.34v60.08L409.69,2.37h20l-50.67,60.35,50.13,67.48Z"/>
      <path class="cls-1" d="m522.36,2.37h18.08l-43.28,70.03v57.8h-15.34v-57.8L438.54,2.37h18.08l32.87,53.23,32.87-53.23Z"/>
      <path class="cls-1" d="m600.69,130.2V2.37h44.1c6.33,0,12.1,1.29,17.3,3.88,5.2,2.59,9.33,6.35,12.37,11.28,3.04,4.93,4.56,10.84,4.56,17.71,0,3.71-.62,7.29-1.87,10.73-1.25,3.44-2.95,6.39-5.11,8.86-2.16,2.47-4.61,4.12-7.35,4.98,3.83.97,7.09,2.69,9.77,5.16,2.68,2.47,4.85,5.34,6.53,8.63,1.67,3.29,2.88,6.73,3.61,10.32.73,3.59,1.1,7.06,1.1,10.41,0,7.06-1.6,13.29-4.79,18.67-3.2,5.39-7.47,9.6-12.83,12.65-5.36,3.04-11.26,4.57-17.71,4.57h-49.67Zm15.34-76.15h27.3c5.6,0,10.39-1.66,14.38-4.98,3.99-3.32,5.98-7.96,5.98-13.92,0-6.45-1.99-11.28-5.98-14.47-3.99-3.2-8.78-4.79-14.38-4.79h-27.3v38.17Zm0,62.64h32.96c4.2,0,8.02-1.08,11.46-3.24,3.44-2.16,6.19-5.13,8.26-8.9,2.07-3.77,3.1-8.03,3.1-12.78,0-4.2-1.04-8.17-3.1-11.92-2.07-3.74-4.83-6.77-8.26-9.08-3.44-2.31-7.26-3.47-11.46-3.47h-32.96v49.4Z"/>
      <path class="cls-1" d="m746.78,2.37h18.54l46.47,127.83h-16.25l-9.5-26.11h-59.99l-9.4,26.11h-16.34L746.78,2.37Zm-15.07,86.38h48.67l-24.38-66.74-24.29,66.74Z"/>
      <path class="cls-1" d="m830.05,130.2V2.37h44.92c6.82,0,12.98,1.68,18.49,5.02,5.51,3.35,9.89,7.87,13.15,13.56,3.26,5.69,4.88,12.04,4.88,19.04,0,6.15-1.22,11.75-3.65,16.8-2.43,5.05-5.77,9.27-10,12.65-4.23,3.38-9.02,5.71-14.38,6.98l31.04,53.78h-17.71l-30.5-52.5h-20.91v52.5h-15.34Zm15.34-67.84h28.03c4.14,0,7.94-1.02,11.41-3.06,3.47-2.04,6.22-4.81,8.26-8.31,2.04-3.5,3.06-7.44,3.06-11.82s-1.02-8.41-3.06-11.92c-2.04-3.5-4.79-6.27-8.26-8.31-3.47-2.04-7.27-3.06-11.41-3.06h-28.03v46.47Z"/>
      <path class="cls-1" d="m934.23,130.2V2.37h44.1c6.33,0,12.1,1.29,17.3,3.88,5.2,2.59,9.33,6.35,12.37,11.28,3.04,4.93,4.56,10.84,4.56,17.71,0,3.71-.62,7.29-1.87,10.73-1.25,3.44-2.95,6.39-5.11,8.86-2.16,2.47-4.61,4.12-7.35,4.98,3.83.97,7.09,2.69,9.77,5.16,2.68,2.47,4.85,5.34,6.53,8.63,1.67,3.29,2.88,6.73,3.61,10.32.73,3.59,1.1,7.06,1.1,10.41,0,7.06-1.6,13.29-4.79,18.67-3.2,5.39-7.47,9.6-12.83,12.65-5.36,3.04-11.26,4.57-17.71,4.57h-49.67Zm15.34-76.15h27.3c5.6,0,10.39-1.66,14.38-4.98,3.99-3.32,5.98-7.96,5.98-13.92,0-6.45-1.99-11.28-5.98-14.47-3.99-3.2-8.78-4.79-14.38-4.79h-27.3v38.17Zm0,62.64h32.96c4.2,0,8.02-1.08,11.46-3.24,3.44-2.16,6.19-5.13,8.26-8.9,2.07-3.77,3.1-8.03,3.1-12.78,0-4.2-1.04-8.17-3.1-11.92-2.07-3.74-4.83-6.77-8.26-9.08-3.44-2.31-7.26-3.47-11.46-3.47h-32.96v49.4Z"/>
      <path class="cls-1" d="m1037.5,130.2V2.37h78.43v15.34h-63.09v36.34h51.68v15.34h-51.68v45.47h63.09v15.34h-78.43Z"/>
      <path class="cls-1" d="m1136.01,130.2V2.37h44.92c6.82,0,12.98,1.68,18.49,5.02,5.51,3.35,9.89,7.87,13.15,13.56,3.26,5.69,4.88,12.04,4.88,19.04,0,6.15-1.22,11.75-3.65,16.8-2.43,5.05-5.77,9.27-10,12.65-4.23,3.38-9.02,5.71-14.38,6.98l31.04,53.78h-17.71l-30.5-52.5h-20.91v52.5h-15.34Zm15.34-67.84h28.03c4.14,0,7.94-1.02,11.41-3.06,3.47-2.04,6.22-4.81,8.26-8.31,2.04-3.5,3.06-7.44,3.06-11.82s-1.02-8.41-3.06-11.92c-2.04-3.5-4.79-6.27-8.26-8.31-3.47-2.04-7.27-3.06-11.41-3.06h-28.03v46.47Z"/>
    </g>
  </g>
</svg>