<?xml version="1.0" encoding="UTF-8"?>
<svg id="Layer_2" data-name="Layer 2" xmlns="http://www.w3.org/2000/svg" viewBox="0 0 541.35 267.4">
  <defs>
    <style>
      .cls-1 {
        fill: #f7f7f7;
        stroke-width: 0px;
      }
    </style>
  </defs>
  <g id="Layer_1-2" data-name="Layer 1">
    <g>
      <path class="cls-1" d="m0,130.2V2.37h15.34v112.49h57.25v15.34H0Z"/>
      <path class="cls-1" d="m142.71,132.58c-10.23,0-19.1-2.5-26.62-7.49-7.52-4.99-13.3-11.7-17.35-20.13-4.05-8.43-6.07-17.79-6.07-28.08V2.37h15.34v74.51c0,7.3,1.35,14.03,4.06,20.18,2.71,6.15,6.63,11.05,11.78,14.7,5.14,3.65,11.43,5.48,18.85,5.48s13.88-1.84,18.99-5.52c5.11-3.68,8.99-8.58,11.64-14.7,2.65-6.12,3.97-12.83,3.97-20.13V2.37h15.34v74.51c0,7.73-1.16,14.96-3.47,21.69-2.31,6.73-5.65,12.65-10,17.76-4.35,5.11-9.6,9.1-15.75,11.96-6.15,2.86-13.06,4.29-20.73,4.29Z"/>
      <path class="cls-1" d="m273.73,132.58c-8.64,0-16.77-1.72-24.38-5.16-7.61-3.44-14.29-8.19-20.04-14.24-5.75-6.06-10.26-13.1-13.51-21.14-3.26-8.03-4.88-16.62-4.88-25.75s1.63-17.71,4.88-25.75c3.26-8.03,7.76-15.08,13.51-21.14,5.75-6.06,12.43-10.8,20.04-14.24,7.61-3.44,15.73-5.16,24.38-5.16,10.35,0,19.87,2.41,28.58,7.21,8.7,4.81,15.92,11.2,21.64,19.17l-13.6,7.3c-4.26-5.6-9.63-10.06-16.12-13.38-6.48-3.32-13.32-4.98-20.5-4.98-6.64,0-12.83,1.34-18.58,4.02-5.75,2.68-10.79,6.36-15.11,11.05-4.32,4.69-7.7,10.1-10.14,16.25-2.44,6.15-3.65,12.69-3.65,19.63s1.23,13.57,3.7,19.72c2.47,6.15,5.87,11.57,10.23,16.25,4.35,4.69,9.4,8.35,15.16,11,5.75,2.65,11.88,3.97,18.4,3.97,7.43,0,14.32-1.69,20.68-5.07,6.36-3.38,11.67-7.81,15.93-13.29l13.6,7.4c-5.72,7.98-12.94,14.35-21.64,19.13-8.71,4.78-18.23,7.17-28.58,7.17Z"/>
      <path class="cls-1" d="m429.14,130.2h-19.81l-40.36-55.42-9.59,11.5v43.92h-15.34V2.37h15.34v60.08L409.69,2.37h20l-50.68,60.35,50.13,67.48Z"/>
      <path class="cls-1" d="m522.36,2.37h18.08l-43.28,70.03v57.8h-15.34v-57.8L438.54,2.37h18.08l32.87,53.23,32.87-53.23Z"/>
    </g>
    <g>
      <path class="cls-1" d="m.02,267.4v-111.19h38.36c5.51,0,10.52,1.13,15.05,3.38,4.53,2.25,8.11,5.52,10.76,9.81,2.65,4.29,3.97,9.42,3.97,15.41,0,3.23-.54,6.34-1.63,9.33-1.09,2.99-2.57,5.56-4.45,7.7-1.88,2.14-4.01,3.59-6.39,4.33,3.34.85,6.17,2.34,8.5,4.49,2.33,2.14,4.22,4.65,5.68,7.5,1.46,2.86,2.5,5.85,3.14,8.97.64,3.12.95,6.14.95,9.05,0,6.14-1.39,11.56-4.17,16.24s-6.5,8.35-11.16,11c-4.66,2.65-9.8,3.97-15.41,3.97H.02Zm13.34-66.24h23.75c4.87,0,9.04-1.44,12.51-4.33,3.47-2.88,5.2-6.92,5.2-12.11,0-5.61-1.73-9.81-5.2-12.59-3.47-2.78-7.64-4.17-12.51-4.17H13.36v33.2Zm0,54.48h28.67c3.65,0,6.98-.94,9.97-2.82,2.99-1.88,5.39-4.46,7.19-7.74,1.8-3.28,2.7-6.99,2.7-11.12,0-3.65-.9-7.11-2.7-10.36-1.8-3.26-4.2-5.89-7.19-7.9-2.99-2.01-6.31-3.02-9.97-3.02H13.36v42.97Z"/>
      <path class="cls-1" d="m127.09,156.21h16.12l40.42,111.19h-14.14l-8.26-22.71h-52.18l-8.18,22.71h-14.22l40.42-111.19Zm-13.1,75.13h42.33l-21.2-58.05-21.13,58.05Z"/>
      <path class="cls-1" d="m199.51,267.4v-111.19h39.07c5.93,0,11.29,1.46,16.08,4.37,4.79,2.91,8.6,6.84,11.44,11.79,2.83,4.95,4.25,10.47,4.25,16.56,0,5.35-1.06,10.22-3.18,14.61-2.12,4.4-5.02,8.06-8.7,11-3.68,2.94-7.85,4.96-12.51,6.08l27,46.78h-15.41l-26.53-45.67h-18.19v45.67h-13.34Zm13.34-59.01h24.38c3.6,0,6.91-.89,9.93-2.66,3.02-1.77,5.41-4.18,7.19-7.23,1.77-3.04,2.66-6.47,2.66-10.28s-.89-7.32-2.66-10.36c-1.77-3.04-4.17-5.45-7.19-7.23-3.02-1.77-6.33-2.66-9.93-2.66h-24.38v40.42Z"/>
      <path class="cls-1" d="m290.13,267.4v-111.19h38.36c5.51,0,10.52,1.13,15.05,3.38,4.53,2.25,8.11,5.52,10.76,9.81,2.65,4.29,3.97,9.42,3.97,15.41,0,3.23-.54,6.34-1.63,9.33-1.09,2.99-2.57,5.56-4.45,7.7-1.88,2.14-4.01,3.59-6.39,4.33,3.34.85,6.17,2.34,8.5,4.49,2.33,2.14,4.22,4.65,5.68,7.5,1.46,2.86,2.5,5.85,3.14,8.97.64,3.12.95,6.14.95,9.05,0,6.14-1.39,11.56-4.17,16.24-2.78,4.69-6.5,8.35-11.16,11s-9.79,3.97-15.41,3.97h-43.2Zm13.34-66.24h23.75c4.87,0,9.04-1.44,12.51-4.33,3.47-2.88,5.2-6.92,5.2-12.11,0-5.61-1.74-9.81-5.2-12.59-3.47-2.78-7.64-4.17-12.51-4.17h-23.75v33.2Zm0,54.48h28.67c3.65,0,6.97-.94,9.97-2.82,2.99-1.88,5.39-4.46,7.19-7.74,1.8-3.28,2.7-6.99,2.7-11.12,0-3.65-.9-7.11-2.7-10.36-1.8-3.26-4.2-5.89-7.19-7.9-2.99-2.01-6.31-3.02-9.97-3.02h-28.67v42.97Z"/>
      <path class="cls-1" d="m379.95,267.4v-111.19h68.22v13.34h-54.88v31.61h44.95v13.34h-44.95v39.55h54.88v13.34h-68.22Z"/>
      <path class="cls-1" d="m465.64,267.4v-111.19h39.07c5.93,0,11.29,1.46,16.08,4.37,4.79,2.91,8.6,6.84,11.44,11.79,2.83,4.95,4.25,10.47,4.25,16.56,0,5.35-1.06,10.22-3.18,14.61-2.12,4.4-5.02,8.06-8.7,11s-7.85,4.96-12.51,6.08l27,46.78h-15.41l-26.53-45.67h-18.19v45.67h-13.34Zm13.34-59.01h24.38c3.6,0,6.91-.89,9.93-2.66,3.02-1.77,5.41-4.18,7.19-7.23,1.77-3.04,2.66-6.47,2.66-10.28s-.89-7.32-2.66-10.36c-1.78-3.04-4.17-5.45-7.19-7.23-3.02-1.77-6.33-2.66-9.93-2.66h-24.38v40.42Z"/>
    </g>
    <g>
      <path class="cls-1" d="m530.82,121.4v1.01h-2.8v7.39h-1.01v-7.39h-2.79v-1.01h6.59Z"/>
      <path class="cls-1" d="m532.02,129.8l1.63-8.4h.77l2.27,5.96,2.26-5.96h.77l1.63,8.4h-1.03l-1.18-6.1-2.13,5.64h-.67l-2.13-5.64-1.18,6.1h-1.03Z"/>
    </g>
  </g>
</svg>