<?xml version="1.0" encoding="UTF-8"?>
<svg id="Layer_2" data-name="Layer 2" xmlns="http://www.w3.org/2000/svg" viewBox="0 0 221.31 117.25">
  <defs>
    <style>
      .cls-1 {
        fill: #f2f1f1;
      }

      .cls-1, .cls-2 {
        stroke-width: 0px;
      }

      .cls-2 {
        fill: #f89946;
      }
    </style>
  </defs>
  <g id="Layer_2-2" data-name="Layer 2">
    <g id="Layer_1-2" data-name="Layer 1-2">
      <g>
        <path class="cls-1" d="m2.98,46.89V9.92c0-.68-.14-5.59-2.98-8.86h15.5c-2.9,4.51-2.9,8.94-2.9,8.94v40.47h11.76c1.19-.08,2.25-.46,3.21-1.15l4.81-3.74,3.97,10.16H0c2.84-3.26,2.97-8.17,2.98-8.85Z"/>
        <path class="cls-1" d="m65.73,1.08h13.17c-2.62,4.51-2.62,8.94-2.62,8.94v27.49c0,5.72-3.06,19.16-20.43,19.16-16.32,0-19.84-10-20.07-20.62V9.93c-.08-.61-.15-5.57-2.98-8.86h16.88c-2.82,4.51-2.82,8.94-2.82,8.94.08,9.13.26,17.69.26,27.33s7.7,13.51,14.02,13.51,7.28-8.25,7.28-13.15V9.75c-.02-1.11-.53-5.7-2.69-8.68h0Z"/>
        <path class="cls-1" d="m122.41,50.17c-4.35,4.66-10.46,6.65-17.19,6.65-13.21,0-23.83-7.41-23.83-28.33S92.01,0,105.22,0c6.57,0,12.6,1.99,16.88,6.57l-8.4,10.31c-2.98-5.5-7.94-8.93-19.01-8.93-3.46-.02-5.14,2.98-5.04,9,0,3.89.77,8.71,2.14,13.83,2.83,10.54,7.79,19.93,21.84,19.93,2.9,0,5.88-.38,8.78-.54h0Z"/>
        <path class="cls-1" d="m169.89,55.68s-2.43.47-5.51.47c-2.56,0-5.58-.33-8.01-1.55-4.5-2.22-17.71-21.92-20.31-25.89v18.1s0,4.43,2.9,8.93h-15.5c2.9-3.29,2.98-8.17,2.98-8.93V9.93c0-.69-.15-5.57-2.98-8.86h15.5c-2.9,4.51-2.9,8.94-2.9,8.94v15.58c.46-.46,6.95-6.64,15.04-16.19.78-.89,1.05-1.56,1.05-2.23-.4-2.25-1.33-4.28-2.77-6.09l15.69.07c-10.16,10.61-13.75,15.12-19.17,22.3,0,0,13.13,23.75,23.98,32.23h0Z"/>
        <path class="cls-1" d="m217.76,1.15c-3.43,3.13-6.04,6.18-8.48,10.23-2.44,4.06-11,19.32-11,19.32v13.52c0,5.73.76,8.17,2.9,11.53h-16.57c2.98-3.05,3.13-5.96,3.13-12.07v-12.07s-11.2-19.06-12.83-21.84c-1.64-2.78-4.12-5.95-7.1-8.63h18.48c-1.88,2.66-2.22,4.08-.54,7.33,1.69,3.25,5.35,10.39,9.24,17.34,0,0,7.55-14.25,9.16-17.19,1.62-2.94,1.2-5.13-.76-7.48h14.37Z"/>
      </g>
      <g>
        <path class="cls-1" d="m210.78,47.56v1.01h-2.8v7.39h-1.01v-7.39h-2.79v-1.01h6.6Z"/>
        <path class="cls-1" d="m211.98,55.96l1.63-8.4h.77l2.27,5.96,2.26-5.96h.77l1.63,8.4h-1.03l-1.18-6.1-2.13,5.64h-.67l-2.13-5.64-1.18,6.1h-1.03.02Z"/>
      </g>
    </g>
    <g>
      <path class="cls-2" d="m.75,117.25v-46.17h15.6c2.24,0,4.28.46,6.12,1.37,1.84.91,3.3,2.24,4.39,3.99,1.09,1.75,1.63,3.86,1.63,6.35,0,1.41-.25,2.75-.76,4.02-.51,1.28-1.17,2.36-1.98,3.25-.81.89-1.69,1.47-2.64,1.73,1.36.35,2.54.96,3.53,1.83.99.87,1.8,1.89,2.44,3.07.64,1.18,1.1,2.41,1.4,3.71s.45,2.57.45,3.83c0,2.59-.57,4.87-1.7,6.83-1.13,1.96-2.64,3.48-4.53,4.57-1.89,1.09-3.99,1.63-6.3,1.63H.75Zm4.62-27.21h10.59c2.18,0,4.04-.63,5.59-1.9,1.55-1.26,2.32-3.06,2.32-5.39,0-2.55-.77-4.45-2.32-5.69-1.55-1.24-3.41-1.86-5.59-1.86H5.36v14.84Zm0,23.08h12.66c1.6,0,3.06-.42,4.37-1.25,1.31-.84,2.35-1.98,3.13-3.43.78-1.45,1.17-3.09,1.17-4.91,0-1.63-.39-3.16-1.17-4.6-.78-1.44-1.83-2.61-3.13-3.5-1.31-.89-2.77-1.33-4.37-1.33H5.36v19.03Z"/>
      <path class="cls-2" d="m52.98,71.08h5.74l16.82,46.17h-4.91l-3.59-9.89h-22.33l-3.59,9.89h-4.91l16.79-46.17Zm-6.6,31.66h18.93l-9.46-25.99-9.46,25.99Z"/>
      <path class="cls-2" d="m82.14,117.25v-46.17h15.66c2.46,0,4.68.6,6.66,1.8,1.98,1.2,3.55,2.81,4.72,4.85,1.17,2.03,1.75,4.31,1.75,6.84,0,2.26-.46,4.32-1.39,6.17s-2.18,3.38-3.78,4.58c-1.59,1.21-3.39,2.01-5.39,2.41l11.28,19.52h-5.34l-11.11-19.16h-8.44v19.16h-4.62Zm4.62-23.78h10.65c1.63,0,3.12-.4,4.47-1.2,1.35-.8,2.43-1.89,3.23-3.26.8-1.37,1.2-2.93,1.2-4.67s-.4-3.29-1.2-4.67c-.8-1.37-1.88-2.46-3.23-3.26s-2.84-1.2-4.47-1.2h-10.65v18.27Z"/>
      <path class="cls-2" d="m118.91,117.25v-46.17h15.6c2.24,0,4.28.46,6.12,1.37,1.83.91,3.3,2.24,4.39,3.99,1.09,1.75,1.63,3.86,1.63,6.35,0,1.41-.25,2.75-.76,4.02-.51,1.28-1.17,2.36-1.98,3.25s-1.69,1.47-2.64,1.73c1.36.35,2.54.96,3.53,1.83.99.87,1.8,1.89,2.44,3.07.64,1.18,1.1,2.41,1.4,3.71s.45,2.57.45,3.83c0,2.59-.57,4.87-1.7,6.83-1.13,1.96-2.64,3.48-4.54,4.57-1.89,1.09-3.99,1.63-6.3,1.63h-17.64Zm4.62-27.21h10.59c2.18,0,4.04-.63,5.59-1.9,1.55-1.26,2.33-3.06,2.33-5.39,0-2.55-.78-4.45-2.33-5.69-1.55-1.24-3.41-1.86-5.59-1.86h-10.59v14.84Zm0,23.08h12.66c1.6,0,3.06-.42,4.37-1.25,1.31-.84,2.35-1.98,3.13-3.43.78-1.45,1.17-3.09,1.17-4.91,0-1.63-.39-3.16-1.17-4.6-.78-1.44-1.83-2.61-3.13-3.5s-2.76-1.33-4.37-1.33h-12.66v19.03Z"/>
      <path class="cls-2" d="m155.68,117.25v-46.17h28.1v4.62h-23.48v14.51h19.42v4.62h-19.42v17.81h23.48v4.62h-28.1Z"/>
      <path class="cls-2" d="m191.03,117.25v-46.17h15.67c2.46,0,4.68.6,6.66,1.8,1.98,1.2,3.55,2.81,4.72,4.85,1.17,2.03,1.75,4.31,1.75,6.84,0,2.26-.46,4.32-1.38,6.17-.92,1.85-2.18,3.38-3.78,4.58-1.59,1.21-3.39,2.01-5.39,2.41l11.28,19.52h-5.34l-11.11-19.16h-8.44v19.16h-4.62Zm4.62-23.78h10.65c1.63,0,3.12-.4,4.47-1.2,1.35-.8,2.43-1.89,3.23-3.26s1.2-2.93,1.2-4.67-.4-3.29-1.2-4.67c-.8-1.37-1.88-2.46-3.23-3.26-1.35-.8-2.84-1.2-4.47-1.2h-10.65v18.27Z"/>
    </g>
  </g>
</svg>