<?xml version="1.0" encoding="UTF-8"?>
<svg id="Layer_2" data-name="Layer 2" xmlns="http://www.w3.org/2000/svg" viewBox="0 0 494.71 56.82">
  <defs>
    <style>
      .cls-1 {
        fill: #f2f1f1;
        stroke-width: 0px;
      }
    </style>
  </defs>
  <g id="Layer_2-2" data-name="Layer 2">
    <g id="Layer_1-2" data-name="Layer 1-2">
      <g>
        <path class="cls-1" d="m2.98,46.89V9.92c0-.68-.14-5.59-2.98-8.86h15.5c-2.9,4.51-2.9,8.94-2.9,8.94v40.47h11.76c1.19-.08,2.25-.46,3.21-1.15l4.81-3.74,3.97,10.16H0c2.84-3.26,2.97-8.17,2.98-8.85Z"/>
        <path class="cls-1" d="m65.73,1.08h13.17c-2.62,4.51-2.62,8.94-2.62,8.94v27.49c0,5.72-3.06,19.16-20.43,19.16-16.32,0-19.84-10-20.07-20.62V9.93c-.08-.61-.15-5.57-2.98-8.86h16.88c-2.82,4.51-2.82,8.94-2.82,8.94.08,9.13.26,17.69.26,27.33s7.7,13.51,14.02,13.51,7.28-8.25,7.28-13.15V9.75c-.02-1.11-.53-5.7-2.69-8.68h0Z"/>
        <path class="cls-1" d="m122.41,50.17c-4.35,4.66-10.46,6.65-17.19,6.65-13.21,0-23.83-7.41-23.83-28.33S92.01,0,105.22,0c6.57,0,12.6,1.99,16.88,6.57l-8.4,10.31c-2.98-5.5-7.94-8.93-19.01-8.93-3.46-.02-5.14,2.98-5.04,9,0,3.89.77,8.71,2.14,13.83,2.83,10.54,7.79,19.93,21.84,19.93,2.9,0,5.88-.38,8.78-.54h0Z"/>
        <path class="cls-1" d="m169.89,55.68s-2.43.47-5.51.47c-2.56,0-5.58-.33-8.01-1.55-4.5-2.22-17.71-21.92-20.31-25.89v18.1s0,4.43,2.9,8.93h-15.5c2.9-3.29,2.98-8.17,2.98-8.93V9.93c0-.69-.15-5.57-2.98-8.86h15.5c-2.9,4.51-2.9,8.94-2.9,8.94v15.58c.46-.46,6.95-6.64,15.04-16.19.78-.89,1.05-1.56,1.05-2.23-.4-2.25-1.33-4.28-2.77-6.09l15.69.07c-10.16,10.61-13.75,15.12-19.17,22.3,0,0,13.13,23.75,23.98,32.23h0Z"/>
        <path class="cls-1" d="m217.76,1.15c-3.43,3.13-6.04,6.18-8.48,10.23-2.44,4.06-11,19.32-11,19.32v13.52c0,5.73.76,8.17,2.9,11.53h-16.57c2.98-3.05,3.13-5.96,3.13-12.07v-12.07s-11.2-19.06-12.83-21.84c-1.64-2.78-4.12-5.95-7.1-8.63h18.48c-1.88,2.66-2.22,4.08-.54,7.33,1.69,3.25,5.35,10.39,9.24,17.34,0,0,7.55-14.25,9.16-17.19,1.62-2.94,1.2-5.13-.76-7.48h14.37Z"/>
      </g>
    </g>
    <g>
      <path class="cls-1" d="m234.35,55.84V1.14h18.48c2.66,0,5.07.54,7.25,1.62,2.17,1.08,3.91,2.66,5.2,4.73,1.29,2.07,1.93,4.58,1.93,7.52,0,1.67-.3,3.26-.9,4.77-.6,1.51-1.38,2.79-2.34,3.85-.96,1.06-2.01,1.74-3.12,2.05,1.61.42,3.01,1.14,4.18,2.17,1.17,1.03,2.14,2.24,2.89,3.63.76,1.39,1.31,2.86,1.66,4.39.35,1.54.53,3.05.53,4.53,0,3.07-.67,5.77-2.01,8.09-1.34,2.32-3.13,4.12-5.37,5.41-2.24,1.29-4.73,1.93-7.46,1.93h-20.9Zm5.47-32.23h12.54c2.58,0,4.79-.75,6.62-2.25,1.84-1.5,2.75-3.63,2.75-6.39,0-3.02-.92-5.27-2.75-6.74-1.84-1.47-4.04-2.21-6.62-2.21h-12.54v17.58Zm0,27.35h15c1.9,0,3.63-.5,5.18-1.48,1.55-.99,2.79-2.34,3.71-4.06.92-1.72,1.39-3.66,1.39-5.82,0-1.93-.46-3.74-1.39-5.45-.92-1.71-2.16-3.09-3.71-4.14-1.55-1.05-3.28-1.58-5.18-1.58h-15v22.54Z"/>
      <path class="cls-1" d="m296.23,1.14h6.8l19.92,54.69h-5.82l-4.26-11.72h-26.45l-4.26,11.72h-5.82L296.23,1.14Zm-7.81,37.5h22.42l-11.21-30.78-11.21,30.78Z"/>
      <path class="cls-1" d="m330.76,55.84V1.14h18.56c2.92,0,5.55.71,7.89,2.13,2.34,1.42,4.21,3.33,5.59,5.74,1.38,2.41,2.07,5.11,2.07,8.11,0,2.68-.55,5.12-1.64,7.3-1.09,2.19-2.58,4-4.47,5.43-1.89,1.43-4.02,2.38-6.39,2.85l13.36,23.13h-6.33l-13.17-22.7h-10v22.7h-5.47Zm5.47-28.17h12.62c1.93,0,3.69-.48,5.29-1.43,1.6-.95,2.88-2.24,3.83-3.87.95-1.63,1.43-3.47,1.43-5.53s-.48-3.9-1.43-5.53c-.95-1.63-2.23-2.92-3.83-3.87-1.6-.95-3.37-1.43-5.29-1.43h-12.62v21.64Z"/>
      <path class="cls-1" d="m374.32,55.84V1.14h18.48c2.66,0,5.07.54,7.25,1.62,2.17,1.08,3.91,2.66,5.2,4.73,1.29,2.07,1.93,4.58,1.93,7.52,0,1.67-.3,3.26-.9,4.77-.6,1.51-1.38,2.79-2.34,3.85-.96,1.06-2.01,1.74-3.12,2.05,1.61.42,3.01,1.14,4.18,2.17,1.17,1.03,2.13,2.24,2.89,3.63.75,1.39,1.31,2.86,1.66,4.39.35,1.54.53,3.05.53,4.53,0,3.07-.67,5.77-2.01,8.09-1.34,2.32-3.13,4.12-5.37,5.41-2.24,1.29-4.73,1.93-7.46,1.93h-20.9Zm5.47-32.23h12.54c2.58,0,4.79-.75,6.62-2.25,1.84-1.5,2.75-3.63,2.75-6.39,0-3.02-.92-5.27-2.75-6.74-1.84-1.47-4.04-2.21-6.62-2.21h-12.54v17.58Zm0,27.35h15c1.9,0,3.63-.5,5.18-1.48,1.55-.99,2.79-2.34,3.71-4.06.92-1.72,1.39-3.66,1.39-5.82,0-1.93-.46-3.74-1.39-5.45-.92-1.71-2.16-3.09-3.71-4.14-1.55-1.05-3.28-1.58-5.18-1.58h-15v22.54Z"/>
      <path class="cls-1" d="m417.88,55.84V1.14h33.28v5.47h-27.81v17.19h23.01v5.47h-23.01v21.1h27.81v5.47h-33.28Z"/>
      <path class="cls-1" d="m459.75,55.84V1.14h18.56c2.92,0,5.55.71,7.89,2.13,2.34,1.42,4.21,3.33,5.59,5.74,1.38,2.41,2.07,5.11,2.07,8.11,0,2.68-.55,5.12-1.64,7.3-1.09,2.19-2.58,4-4.47,5.43-1.89,1.43-4.02,2.38-6.39,2.85l13.36,23.13h-6.33l-13.17-22.7h-10v22.7h-5.47Zm5.47-28.17h12.62c1.93,0,3.69-.48,5.29-1.43,1.6-.95,2.88-2.24,3.83-3.87.95-1.63,1.43-3.47,1.43-5.53s-.48-3.9-1.43-5.53c-.95-1.63-2.23-2.92-3.83-3.87-1.6-.95-3.37-1.43-5.29-1.43h-12.62v21.64Z"/>
    </g>
  </g>
</svg>